<svg width="250" height="250" viewBox="0 0 250 250" fill="none" xmlns="http://www.w3.org/2000/svg">
<circle cx="120" cy="123" r="97.5" fill="#0E0E1F" stroke="#C9BD89" stroke-width="25"/>
<path d="M103.485 184.839L88.2761 91.7076L126.336 78.824C132.881 76.6087 138.829 76.0349 144.181 77.1024C149.533 78.17 153.977 80.7127 157.513 84.7307C161.048 88.7486 163.358 94.0611 164.443 100.668C165.567 107.39 165.131 113.664 163.136 119.49C161.16 125.278 157.854 130.348 153.217 134.701C148.599 139.015 142.903 142.319 136.129 144.612L113.396 152.307L110.2 132.658L128.111 126.595C130.981 125.624 133.342 124.281 135.193 122.566C137.034 120.823 138.323 118.819 139.06 116.555C139.788 114.261 139.925 111.783 139.471 109.121C139.018 106.459 138.103 104.37 136.726 102.852C135.367 101.297 133.609 100.356 131.452 100.031C129.313 99.6671 126.837 99.9612 124.024 100.913L115.586 103.77L127.424 176.736L103.485 184.839Z" fill="white"/>
</svg>
